<svg xmlns="http://www.w3.org/2000/svg" viewBox="0 0 480 480">
  <defs>
    <linearGradient id="g1" x1="0" x2="1" y1="0" y2="1">
      <stop offset="0" stop-color="#0bb0e3"/>
      <stop offset="1" stop-color="#0b7a53"/>
    </linearGradient>
  </defs>
  <rect width="100%" height="100%" fill="#ffffff"/>
  <g transform="translate(40,30)">
    <path d="M180 210
             C140 170,120 150,120 120
             C120 80,150 60,180 60
             C210 60,230 75,240 95
             C250 75,270 60,300 60
             C330 60,360 80,360 120
             C360 150,340 170,300 210
             L240 270 L180 210 Z"
          fill="none" stroke="#e53935" stroke-width="22" stroke-linecap="round" stroke-linejoin="round"/>
    <path d="M240 95
             C230 115,220 140,220 165
             C220 210,250 240,250 270"
          fill="none" stroke="#0bb0e3" stroke-width="22" stroke-linecap="round"/>
    <path d="M320 70
             C335 60,360 55,370 70
             C360 85,345 95,330 100
             C335 90,340 80,320 70 Z"
          fill="#78c257"/>
    <text x="200" y="330" font-size="52" font-family="Arial, Helvetica, sans-serif" text-anchor="middle" fill="#d42424">Cardio Sree</text>
    <text x="200" y="370" font-size="24" font-family="Arial, Helvetica, sans-serif" text-anchor="middle" fill="#0b3b5a">Add life to heart</text>
  </g>
</svg>
